<?xml version="1.0" encoding="UTF-8" standalone="no"?>
<!-- Created with Inkscape (http://www.inkscape.org/) -->

<svg
   width="26mm"
   height="26mm"
   viewBox="0 0 26 26"
   version="1.1"
   id="svg72555"
   inkscape:version="1.1.1 (3bf5ae0d25, 2021-09-20)"
   sodipodi:docname="1.svg"
   xmlns:inkscape="http://www.inkscape.org/namespaces/inkscape"
   xmlns:sodipodi="http://sodipodi.sourceforge.net/DTD/sodipodi-0.dtd"
   xmlns="http://www.w3.org/2000/svg"
   xmlns:svg="http://www.w3.org/2000/svg">
  <sodipodi:namedview
     id="namedview72557"
     pagecolor="#ffffff"
     bordercolor="#666666"
     borderopacity="1.0"
     inkscape:pageshadow="2"
     inkscape:pageopacity="0.0"
     inkscape:pagecheckerboard="0"
     inkscape:document-units="mm"
     showgrid="false"
     width="209mm"
     inkscape:zoom="6.2217171"
     inkscape:cx="66.300025"
     inkscape:cy="35.199286"
     inkscape:window-width="1682"
     inkscape:window-height="1111"
     inkscape:window-x="559"
     inkscape:window-y="523"
     inkscape:window-maximized="0"
     inkscape:current-layer="layer1" />
  <defs
     id="defs72552" />
  <g
     inkscape:label="Layer 1"
     inkscape:groupmode="layer"
     id="layer1">
    <path
       style="stroke-width:0.750001"
       id="path11516"
       d="m 11.197163,7.8347939 c 0.04506,0.088872 0.09433,0.1757294 0.135177,0.2666162 0.278449,0.6196205 0.602825,1.4332121 0.762514,2.0470999 0.333372,1.281566 0.535879,2.87864 0.656587,4.179992 0.07263,0.783051 0.103595,1.56941 0.155393,2.354114 0.04178,2.914945 0.05596,1.501723 -0.03044,4.239769 0,0 1.831194,-0.941761 1.831194,-0.941761 v 0 c -0.28903,-2.575662 -0.159921,-1.231348 -0.375928,-4.034022 -0.08516,-1.865912 -0.156107,-2.887445 -0.144324,-4.755438 0.0046,-0.722101 0.01479,-1.4449772 0.06433,-2.1653921 0.04967,-0.7224599 0.213096,-1.8439215 0.34675,-2.6317239 0.02004,-0.1180973 0.04684,-0.2349452 0.07027,-0.3524178 0,0 -3.471518,1.7931637 -3.471518,1.7931637 z" />
  </g>
</svg>
