<?xml version="1.0" encoding="UTF-8" standalone="no"?>
<!-- Created with Inkscape (http://www.inkscape.org/) -->

<svg
   width="26mm"
   height="26mm"
   viewBox="0 0 26 26"
   version="1.1"
   id="svg72555"
   inkscape:version="1.1.1 (3bf5ae0d25, 2021-09-20)"
   sodipodi:docname="3.svg"
   xmlns:inkscape="http://www.inkscape.org/namespaces/inkscape"
   xmlns:sodipodi="http://sodipodi.sourceforge.net/DTD/sodipodi-0.dtd"
   xmlns="http://www.w3.org/2000/svg"
   xmlns:svg="http://www.w3.org/2000/svg">
  <sodipodi:namedview
     id="namedview72557"
     pagecolor="#ffffff"
     bordercolor="#666666"
     borderopacity="1.0"
     inkscape:pageshadow="2"
     inkscape:pageopacity="0.0"
     inkscape:pagecheckerboard="0"
     inkscape:document-units="mm"
     showgrid="false"
     width="209mm"
     inkscape:zoom="6.2217171"
     inkscape:cx="66.300025"
     inkscape:cy="35.922559"
     inkscape:window-width="1682"
     inkscape:window-height="1111"
     inkscape:window-x="559"
     inkscape:window-y="523"
     inkscape:window-maximized="0"
     inkscape:current-layer="layer1" />
  <defs
     id="defs72552" />
  <g
     inkscape:label="Layer 1"
     inkscape:groupmode="layer"
     id="layer1">
    <path
       style="stroke-width:0.750001"
       id="path11516"
       d="m 5.7963897,8.1324743 c 0.04506,0.088872 0.09433,0.1757294 0.135177,0.2666162 0.278449,0.6196205 0.602825,1.4332121 0.762514,2.0470995 0.333372,1.281566 0.535879,2.87864 0.656587,4.179992 0.07263,0.783051 0.103595,1.56941 0.155393,2.354114 0.04178,2.914945 0.05596,1.501723 -0.03044,4.239769 0,0 1.8311945,-0.941761 1.8311945,-0.941761 v 0 c -0.28903,-2.575662 -0.159921,-1.231348 -0.375928,-4.034022 -0.08516,-1.865912 -0.156107,-2.887445 -0.144324,-4.755438 0.0046,-0.722101 0.01479,-1.444977 0.06433,-2.1653917 0.04967,-0.7224599 0.213096,-1.8439215 0.34675,-2.6317239 0.02004,-0.1180973 0.04684,-0.2349452 0.07027,-0.3524178 0,0 -3.4715185,1.7931637 -3.4715185,1.7931637 z" />
    <path
       style="stroke-width:0.750001"
       id="path11525"
       d="m 16.410535,7.6485679 c 0.347805,0.8942318 0.546209,1.8463884 0.689332,2.7923521 0.08623,0.569958 0.167334,1.14148 0.214177,1.716017 0.05374,0.659119 0.05822,1.32133 0.08733,1.981995 -0.03745,1.793312 -0.01598,2.210677 -0.169549,3.978026 -0.05004,0.575891 -0.12762,1.149056 -0.19143,1.723585 0,0 2.064284,-1.039326 2.064284,-1.039326 v 0 c -0.01024,-0.538117 -0.02814,-1.076143 -0.03072,-1.614351 -0.0068,-1.414927 0.0278,-2.506396 0.0596,-3.929325 0.03659,-0.695733 0.06272,-1.392096 0.109772,-2.0872 0.07547,-1.114815 0.189492,-2.2990717 0.331212,-3.4129021 0.04411,-0.3466801 0.102411,-0.6914078 0.15275,-1.0372384 0.06538,-0.4491569 0.07318,-0.5105373 0.124649,-0.8870809 0,0 -3.441409,1.8154483 -3.441409,1.8154483 z" />
    <path
       style="stroke-width:0.750001"
       id="path11650"
       d="m 10.687686,5.7026849 c 0.05661,0.082918 0.120728,0.1611836 0.169836,0.2487546 0.363448,0.6480996 0.642672,1.2851879 0.873093,2.0040989 0.498327,1.554774 0.719934,2.6812836 0.895179,4.3323996 0.08759,0.825291 0.1022,1.656704 0.153301,2.485056 0.07045,2.057955 -0.05399,4.115468 -0.330945,6.154449 -0.0585,0.430701 -0.138878,0.858147 -0.208317,1.287221 0,0 2.489499,-1.262058 2.489499,-1.262058 v 0 c -0.05314,-0.368109 -0.112424,-0.735382 -0.159412,-1.104326 -0.243175,-1.909388 -0.383156,-3.829943 -0.481148,-5.751781 -0.09382,-1.896644 -0.175973,-3.13932 -0.186647,-5.0414966 -0.0042,-0.75534 0.01425,-1.510727 0.03576,-2.265772 0.03028,-1.0625517 0.05505,-1.5961256 0.169464,-2.5655732 0.01479,-0.1253148 0.04024,-0.2491404 0.06036,-0.3737107 0,0 -3.480026,1.8527384 -3.480026,1.8527384 z" />
  </g>
</svg>
